<svg xmlns="http://www.w3.org/2000/svg" width="454.778" height="70.02" viewBox="0 0 454.778 70.02">
  <g id="Group_13767" data-name="Group 13767" transform="translate(-198.112 -58.749)">
    <g id="Group_94" data-name="Group 94" transform="translate(275.615 77.045)">
      <path id="Path_2" data-name="Path 2" d="M391.422,242.6v-31h16.346v3.368H395.106v8.89h12.662v3.432H395.106V242.6Z" transform="translate(-391.422 -210.379)" fill="#8567cb"/>
      <path id="Path_3" data-name="Path 3" d="M497.182,214.72v10.372H500q4.32,0,5.779-1.111t1.461-3.886q0-2.983-1.5-4.179T500,214.72Zm-3.6,27.88v-31h7.284a21.325,21.325,0,0,1,4.56.35,6.744,6.744,0,0,1,2.553,1.2,7.08,7.08,0,0,1,2.138,2.893,10.208,10.208,0,0,1,.764,4.011,7.524,7.524,0,0,1-2.128,5.789q-2.129,1.98-6.237,1.98h-.653L513.7,242.6h-4.681l-11.3-14.777h-.529V242.6Z" transform="translate(-471.564 -210.379)" fill="#8567cb"/>
      <rect id="Rectangle_1" data-name="Rectangle 1" width="3.684" height="30.995" transform="translate(45.266 1.226)" fill="#8567cb"/>
      <path id="Path_4" data-name="Path 4" d="M653.5,242.6v-31H669.85v3.368H657.188v8.89H669.85v3.432H657.188v11.878H669.85V242.6Z" transform="translate(-597.019 -210.379)" fill="#8567cb"/>
      <path id="Path_5" data-name="Path 5" d="M758.414,238.139V205.918l22.674,24.768V207.144H784.6v32.2L761.93,214.852v23.287Z" transform="translate(-679.318 -205.918)" fill="#8567cb"/>
      <path id="Path_6" data-name="Path 6" d="M914.406,242.6v-31h5.951a44.271,44.271,0,0,1,9.3.667,12.572,12.572,0,0,1,4.731,2.236,12.938,12.938,0,0,1,4.041,5.25,20.379,20.379,0,0,1,.01,14.7,12.825,12.825,0,0,1-4.051,5.24,12.634,12.634,0,0,1-4.627,2.233,35.4,35.4,0,0,1-8.076.667Zm3.728-3.472h2.35a42.109,42.109,0,0,0,7.917-.495,8.6,8.6,0,0,0,3.66-1.707,10.008,10.008,0,0,0,2.9-4.095,17.117,17.117,0,0,0,.014-11.473,10.061,10.061,0,0,0-2.913-4.078,8.712,8.712,0,0,0-3.714-1.744,40.326,40.326,0,0,0-7.863-.519h-2.35Z" transform="translate(-801.69 -210.379)" fill="#8567cb"/>
      <path id="Path_7" data-name="Path 7" d="M1064.077,222.692a10.514,10.514,0,0,1,4.563,3.428,8.45,8.45,0,0,1,1.536,5.061,9.127,9.127,0,0,1-2.721,6.893,11.138,11.138,0,0,1-13.349.741,9.258,9.258,0,0,1-3.344-5.328l3.344-1.65a8.335,8.335,0,0,0,2.233,4.267,5.516,5.516,0,0,0,3.906,1.448,6.324,6.324,0,0,0,4.489-1.6,5.431,5.431,0,0,0,1.714-4.162,5.7,5.7,0,0,0-1.2-3.607,9.093,9.093,0,0,0-3.61-2.6l-3.768-1.61a10.72,10.72,0,0,1-4.607-3.32,7.927,7.927,0,0,1-1.512-4.87,6.959,6.959,0,0,1,2.455-5.462,9.141,9.141,0,0,1,6.267-2.162,9.487,9.487,0,0,1,4.839,1.185,8.029,8.029,0,0,1,3.186,3.5l-3.047,1.946a7.97,7.97,0,0,0-2.331-2.677,5.065,5.065,0,0,0-2.92-.879,4.707,4.707,0,0,0-3.4,1.269,4.586,4.586,0,0,0-.31,6.1,8.5,8.5,0,0,0,3.156,2.138Z" transform="translate(-908.658 -207.683)" fill="#8567cb"/>
      <path id="Path_8" data-name="Path 8" d="M1163.523,242.6v-31h3.684v11.921h16.471V211.605h3.748v31h-3.748V227.039h-16.471V242.6Z" transform="translate(-997.117 -210.379)" fill="#8567cb"/>
      <rect id="Rectangle_2" data-name="Rectangle 2" width="3.684" height="30.995" transform="translate(197.784 1.226)" fill="#8567cb"/>
      <path id="Path_9" data-name="Path 9" d="M1364.764,225.345h1.862q4.745,0,6.385-1.111t1.64-3.883q0-2.963-1.684-4.169t-6.341-1.209h-1.862Zm0,3.348V242.6h-3.6v-31h6.5a25.181,25.181,0,0,1,5.018.36,7.85,7.85,0,0,1,2.795,1.185,7.078,7.078,0,0,1,2.317,2.9,10.368,10.368,0,0,1,0,8.17,7.044,7.044,0,0,1-2.317,2.9,7.593,7.593,0,0,1-2.785,1.209,25.09,25.09,0,0,1-5.028.36Z" transform="translate(-1152.161 -210.379)" fill="#8567cb"/>
      <path id="Path_10" data-name="Path 10" d="M1542.648,216.321a14.951,14.951,0,0,0-4.741-3.566,13.214,13.214,0,0,0-5.57-1.155,12.494,12.494,0,0,0-8.847,3.768,12.354,12.354,0,0,0-2.671,4.118,13.7,13.7,0,0,0-.889,5.028,14.229,14.229,0,0,0,.529,3.98,11.48,11.48,0,0,0,1.589,3.344,12.864,12.864,0,0,0,4.583,4.075,12.882,12.882,0,0,0,11.379.2,14.412,14.412,0,0,0,4.637-3.664v4.89a17.633,17.633,0,0,1-4.964,2.532,17.829,17.829,0,0,1-5.5.855A15.915,15.915,0,0,1,1527.4,240a16.184,16.184,0,0,1-4.358-2.128,15.726,15.726,0,0,1-6.967-13.315,17.093,17.093,0,0,1,1.2-6.509,15.7,15.7,0,0,1,3.654-5.324,15.914,15.914,0,0,1,5.25-3.418,17.01,17.01,0,0,1,6.287-1.135,16.822,16.822,0,0,1,5.207.815,18.791,18.791,0,0,1,4.977,2.532Z" transform="translate(-1273.687 -207.683)" fill="#8567cb"/>
      <rect id="Rectangle_3" data-name="Rectangle 3" width="3.684" height="30.995" transform="translate(275.271 1.226)" fill="#8567cb"/>
      <path id="Path_11" data-name="Path 11" d="M1724.291,214.72v10.372h2.815q4.32,0,5.779-1.111t1.461-3.886q0-2.983-1.5-4.179t-5.738-1.2Zm-3.6,27.88v-31h7.284a21.329,21.329,0,0,1,4.56.35,6.744,6.744,0,0,1,2.552,1.2,7.079,7.079,0,0,1,2.138,2.893,10.206,10.206,0,0,1,.765,4.011,7.524,7.524,0,0,1-2.128,5.789q-2.129,1.98-6.237,1.98h-.654l11.834,14.777h-4.681l-11.3-14.777h-.529V242.6Z" transform="translate(-1434.201 -210.379)" fill="#8567cb"/>
      <path id="Path_12" data-name="Path 12" d="M1848.347,216.321a14.95,14.95,0,0,0-4.742-3.566,13.215,13.215,0,0,0-5.57-1.155,12.494,12.494,0,0,0-8.847,3.768,12.352,12.352,0,0,0-2.671,4.118,13.7,13.7,0,0,0-.889,5.028,14.229,14.229,0,0,0,.529,3.98,11.476,11.476,0,0,0,1.589,3.344,12.863,12.863,0,0,0,4.583,4.075,12.882,12.882,0,0,0,11.379.2,14.416,14.416,0,0,0,4.637-3.664v4.89a17.639,17.639,0,0,1-4.964,2.532,17.828,17.828,0,0,1-5.5.855A15.916,15.916,0,0,1,1833.1,240a16.182,16.182,0,0,1-4.358-2.128,15.726,15.726,0,0,1-6.968-13.315,17.093,17.093,0,0,1,1.2-6.509,15.7,15.7,0,0,1,3.654-5.324,15.914,15.914,0,0,1,5.25-3.418,17.011,17.011,0,0,1,6.287-1.135,16.822,16.822,0,0,1,5.206.815,18.792,18.792,0,0,1,4.977,2.532Z" transform="translate(-1513.501 -207.683)" fill="#8567cb"/>
      <path id="Path_13" data-name="Path 13" d="M1974.129,242.6v-31h3.684v27.479h11.709V242.6Z" transform="translate(-1633.017 -210.379)" fill="#8567cb"/>
      <path id="Path_14" data-name="Path 14" d="M2066.074,242.6v-31h16.346v3.368h-12.662v8.89h12.662v3.432h-12.662v11.878h12.662V242.6Z" transform="translate(-1705.146 -210.379)" fill="#8567cb"/>
    </g>
    <path id="Path_459" data-name="Path 459" d="M143.372,187.435a8.909,8.909,0,0,0,1.773-.16,9.991,9.991,0,0,0,2.883-1.263,8.637,8.637,0,0,0,2.8-3.478,8.094,8.094,0,0,0-5.291-10.957,10.558,10.558,0,0,0-3.5-.194,7.873,7.873,0,0,0-4.412,2.357,6.321,6.321,0,0,0-1.391,1.85,8.081,8.081,0,0,0,5.38,11.682,8.62,8.62,0,0,0,1.766.161Zm24.788,10.238a3.779,3.779,0,0,0,2.775-.83,4.293,4.293,0,0,0,1.745-3.365,4.91,4.91,0,0,0-.8-3.017,32.569,32.569,0,0,0-17.16-14.73c-.758-.284-1.4-.516-1.434-.516-.062,0,.061.215.154.48a10.87,10.87,0,0,1,.6,5.085,11.334,11.334,0,0,1-.935,3.064c-.277.556-.289.611-.129.707a39.3,39.3,0,0,1,4.9,3.485,35.791,35.791,0,0,1,6.485,7.586,5.016,5.016,0,0,0,1.994,1.742,3.125,3.125,0,0,0,1.818.31Zm-49.679.055a4.693,4.693,0,0,0,2.309-.57,5.242,5.242,0,0,0,1.918-2.055,33.192,33.192,0,0,1,10.276-10.073l.917-.562-.381-.866a10.611,10.611,0,0,1-.327-7.6,3.558,3.558,0,0,0,.221-.74,5.132,5.132,0,0,0-.971.3,32.947,32.947,0,0,0-9.611,5.384,43.861,43.861,0,0,0-4.9,4.911c-2,2.514-3.7,5.468-3.872,6.714a4.549,4.549,0,0,0,2.613,4.776,4.449,4.449,0,0,0,1.81.373Zm14.946,39.639c0-.013-.111-.36-.253-.766a10.429,10.429,0,0,1,.449-7.827c.166-.333.258-.62.21-.635-.29-.1-3.269-2.166-4.2-2.908a40.509,40.509,0,0,1-4.936-4.936c-.487-.611-1.318-1.76-1.844-2.552-1.053-1.59-1.659-2.174-2.66-2.563a5.821,5.821,0,0,0-2.9-.135,3.991,3.991,0,0,0-1.967,1.169,4.509,4.509,0,0,0-.862,5.186,30.182,30.182,0,0,0,4.479,6.561,32.847,32.847,0,0,0,13.645,9.148c.43.146.785.258.828.26Zm19.839.036c.061,0,.436-.141.929-.315A32.868,32.868,0,0,0,168.838,226.7a24.506,24.506,0,0,0,3.729-6.107,5.3,5.3,0,0,0-.062-2.595,4.586,4.586,0,0,0-2.891-2.9,5.149,5.149,0,0,0-2.789-.012,4.745,4.745,0,0,0-2.544,2.012,31.057,31.057,0,0,1-2.037,2.9,33.323,33.323,0,0,1-8.292,7.461c-.6.373-1.1.691-1.118.706-.061.012.1.293.265.617a10.8,10.8,0,0,1,.937,3.129,11.037,11.037,0,0,1-.6,5.008,1.986,1.986,0,0,0-.167.48Zm-9.913,3.928a7.946,7.946,0,0,0,5.487-2.139,8.061,8.061,0,0,0,.813-11.026,8.281,8.281,0,0,0-3.956-2.677,6.679,6.679,0,0,0-2.071-.258,12.24,12.24,0,0,0-1.81.062,8.349,8.349,0,0,0-4.835,2.989A7.719,7.719,0,0,0,135.6,231a9.132,9.132,0,0,0-.062,4.313,7.926,7.926,0,0,0,2.33,3.84,8.029,8.029,0,0,0,5.489,2.183Z" transform="translate(84.102 -112.564)" fill="#8567cb"/>
  </g>
</svg>
